<?xml version="1.0" encoding="UTF-8" standalone="no"?>
<!-- Created with Inkscape (http://www.inkscape.org/) -->

<svg
   width="79.217529mm"
   height="89.17794mm"
   viewBox="0 0 79.21755 89.177939"
   version="1.1"
   id="svg23021"
   inkscape:version="1.4.2 (f4327f4, 2025-05-13)"
   sodipodi:docname="credigestor.svg"
   xml:space="preserve"
   xmlns:inkscape="http://www.inkscape.org/namespaces/inkscape"
   xmlns:sodipodi="http://sodipodi.sourceforge.net/DTD/sodipodi-0.dtd"
   xmlns:xlink="http://www.w3.org/1999/xlink"
   xmlns="http://www.w3.org/2000/svg"
   xmlns:svg="http://www.w3.org/2000/svg"><sodipodi:namedview
     id="namedview23023"
     pagecolor="#ffffff"
     bordercolor="#000000"
     borderopacity="0.25"
     inkscape:showpageshadow="2"
     inkscape:pageopacity="0.0"
     inkscape:pagecheckerboard="0"
     inkscape:deskcolor="#d1d1d1"
     inkscape:document-units="mm"
     showgrid="true"
     inkscape:zoom="0.22627417"
     inkscape:cx="572.31455"
     inkscape:cy="-6.6291261"
     inkscape:window-width="1920"
     inkscape:window-height="1009"
     inkscape:window-x="-8"
     inkscape:window-y="-8"
     inkscape:window-maximized="1"
     inkscape:current-layer="layer1"
     showguides="false"><inkscape:grid
       type="xygrid"
       id="grid776"
       originx="262.00957"
       originy="1253.5325"
       spacingx="26.458333"
       spacingy="26.458333"
       enabled="false"
       units="mm" /></sodipodi:namedview><defs
     id="defs23018"><clipPath
       clipPathUnits="userSpaceOnUse"
       id="clipPath8275"><g
         id="g8279"><use
           x="0"
           y="0"
           xlink:href="#g8250"
           id="use8277"
           transform="translate(-20.462823,-72.789185)" /></g></clipPath><clipPath
       clipPathUnits="userSpaceOnUse"
       id="clipPath10079"><rect
         style="fill:#c8b7b7;fill-opacity:0.746479;stroke:#3cc95e;stroke-width:0;stroke-linecap:round;stroke-opacity:0.996078"
         id="rect10081"
         width="52.911015"
         height="49.403103"
         x="1316.4143"
         y="1652.5684"
         rx="0.52671969"
         ry="0.87574786" /></clipPath><clipPath
       clipPathUnits="userSpaceOnUse"
       id="clipPath12190"><rect
         style="fill:#008000;fill-opacity:0.427817;stroke:#3cc95e;stroke-width:0;stroke-linecap:round;stroke-opacity:0.996078"
         id="rect12192"
         width="175.39565"
         height="48.526123"
         x="527.85919"
         y="-168.87019"
         rx="12.064343"
         ry="14.310345" /></clipPath><clipPath
       clipPathUnits="userSpaceOnUse"
       id="clipPath12616"><rect
         style="fill:#00d455;fill-opacity:1;stroke:#3cc95e;stroke-width:0;stroke-linecap:round;stroke-opacity:0.996078"
         id="rect12618"
         width="150.84024"
         height="182.41145"
         x="862.86499"
         y="-137.88365"
         rx="7.0506887"
         ry="5.5944839" /></clipPath><clipPath
       clipPathUnits="userSpaceOnUse"
       id="clipPath4385"><circle
         style="fill:#e6e6e6;fill-opacity:1;stroke:#000000;stroke-width:0;stroke-linecap:round;stroke-dasharray:none"
         id="circle4387"
         cx="330.98279"
         cy="6.9423862"
         r="143.75597" /></clipPath><clipPath
       clipPathUnits="userSpaceOnUse"
       id="clipPath4487"><circle
         style="fill:#e6e6e6;fill-opacity:1;stroke:#000000;stroke-width:0;stroke-linecap:round;stroke-dasharray:none"
         id="circle4489"
         cx="565.32465"
         cy="-42.289108"
         r="118.15557" /></clipPath><clipPath
       clipPathUnits="userSpaceOnUse"
       id="clipPath445"><circle
         style="fill:#00d455;fill-opacity:0.698039;stroke:#000000;stroke-width:0;stroke-linecap:round"
         id="circle447"
         cx="1164.5865"
         cy="489.20108"
         r="26.178566" /></clipPath></defs><g
     inkscape:label="Capa 1"
     inkscape:groupmode="layer"
     id="layer1"
     transform="translate(-879.21628,437.57487)"><g
       inkscape:label="Clip"
       id="g8250"
       clip-path="url(#clipPath8275)"
       transform="translate(20.462823,72.789185)"
       style="fill:#55d400;fill-opacity:1"><path
         d="m 1059.4449,845.69956 c -8.3614,-1.5136 -15.2795,-7.5298 -18.0131,-15.6648 -0.9662,-2.8751 -1.4436,-6.92594 -1.1143,-9.4551 l 0.2412,-1.85209 h 6.0854 6.0854 l 0.071,6.15156 0.071,6.15153 h 2.5087 2.5087 v -6.21767 -6.21771 h 1.811 1.811 l -0.5164,1.52136 c -1.2318,3.62936 0.519,7.65192 4.1357,9.50212 2.3469,1.2006 4.1471,1.4024 12.5541,1.4073 h 7.7569 l -0.175,0.5953 c -0.096,0.3275 -0.6698,1.4746 -1.2746,2.5493 -4.8746,8.6614 -14.7498,13.2977 -24.5467,11.5243 z m 9.6704,-19.1507 c -2.2597,-0.5407 -3.7561,-2.4923 -3.3969,-4.43056 0.2395,-1.2925 1.7503,-2.83749 3.1566,-3.22791 0.5788,-0.16068 3.0796,-0.29282 5.5572,-0.29363 l 4.5047,-0.002 1.4484,-1.91726 c 0.7966,-1.05449 1.488,-2.00699 1.5366,-2.11666 0.048,-0.10957 -8.9705,-0.1993 -20.0422,-0.1993 -11.0717,0 -20.1304,-0.0629 -20.1304,-0.13984 0,-0.0769 0.3735,-0.88058 0.8299,-1.78594 3.4306,-6.80389 9.259,-11.28218 16.6242,-12.77323 3.2685,-0.66168 8.0708,-0.42433 11.1209,0.54964 4.3835,1.39978 7.6103,3.43926 10.6363,6.72253 2.7476,2.9812 4.824,7.01791 5.6177,10.92141 0.4075,2.00395 0.5612,7.1767 0.248,8.34555 l -0.1596,0.5953 -8.3696,-0.027 c -4.6033,-0.015 -8.7351,-0.1145 -9.1818,-0.2214 z"
         style="fill:#55d400;fill-opacity:1;stroke-width:0.264583"
         id="path11953" /><path
         style="fill:#008000;fill-opacity:0.992958;stroke-width:0.838272"
         d="m 1191.9735,888.20214 c 11.703,-5.72206 17.9154,-18.92944 14.3041,-30.41029 -3.0254,-9.61907 -10.5773,-16.28039 -20.7789,-18.32887 -4.0712,-0.8175 -4.82,-1.24755 -4.82,-2.76818 0,-0.99018 0.7544,-2.4463 1.6766,-3.23583 3.2182,-2.75555 1.3416,-8.15809 -2.8336,-8.15809 -4.6286,0 -6.8335,5.78981 -3.1391,8.24273 0.9796,0.65052 1.7812,2.04665 1.7812,3.10252 0,1.58838 -0.5822,2.01813 -3.3735,2.48972 -5.3502,0.90392 -13.036,5.20283 -16.6577,9.31728 -8.0309,9.12356 -8.0309,23.36952 0,32.49301 6.2044,7.04863 12.9769,9.79511 23.3844,9.48311 4.6787,-0.14026 7.3537,-0.71 10.4565,-2.22711 z m -20.0967,-11.65825 c -5.5939,-3.47425 -8.5793,-9.14668 -7.0251,-13.34813 0.8945,-2.41821 2.8528,-2.34413 9.4293,0.3567 l 5.3713,2.20586 6.1715,-2.14673 c 5.1743,-1.79983 6.3582,-1.96484 7.3264,-1.02115 2.6989,2.6308 -1.332,11.1751 -6.5905,13.96947 -3.9156,2.08072 -11.3199,2.07265 -14.6829,-0.016 z"
         id="path15946"
         sodipodi:nodetypes="ccsscscscscscccscscscc" /></g><g
       id="g33003"
       transform="translate(224.22692,-106.58143)" /><path
       id="path10"
       style="fill:#d3bc5f;fill-opacity:1;stroke-width:1.62279"
       d="m 919.55043,-437.55942 c -8.72741,-0.2997 -17.39445,3.76656 -22.66318,11.64396 -3.31242,4.95247 -4.14749,7.89825 -4.141,14.61597 0.005,4.67682 0.15968,6.01153 0.95852,8.23002 3.38325,9.39537 11.14261,15.9995 20.8258,17.72634 5.48994,0.97905 13.36417,-0.65072 18.17918,-3.76281 4.97556,-3.21586 9.00344,-8.41336 10.99657,-14.18743 1.32226,-3.8306 1.41366,-11.908 0.17526,-15.51998 -1.98458,-5.78833 -5.01032,-10.14908 -9.27743,-13.37148 -4.55934,-3.4431 -9.81727,-5.19478 -15.05372,-5.37459 z m -1.03482,10.20409 c 0.37912,-0.006 0.79913,0.0891 1.2495,0.29434 0.83509,0.38048 1.07463,0.85177 1.18076,2.32293 l 0.13339,1.84576 2.7741,0.1308 c 1.52592,0.0716 3.02331,0.33619 3.32756,0.5887 0.70715,0.58682 0.71809,2.68849 0.0167,3.27054 -0.29537,0.24512 -3.08798,0.51051 -6.20565,0.58954 -3.11769,0.079 -5.84906,0.33662 -6.06979,0.57277 -0.93228,0.99743 -0.96983,2.31916 -0.0906,3.19842 0.74329,0.74324 1.4238,0.88053 4.36407,0.88053 2.73218,0 3.82062,0.19183 5.04503,0.88807 2.5699,1.46137 3.27891,2.77268 3.27891,6.0656 v 2.87388 l -1.50276,1.55476 c -0.90336,0.9346 -2.23064,1.75062 -3.32757,2.04535 l -1.82479,0.49059 v 1.6034 c 0,1.17086 -0.25779,1.78471 -0.95434,2.2726 -0.52484,0.36761 -1.06135,0.66836 -1.19247,0.66836 -0.13112,0 -0.66765,-0.30075 -1.19249,-0.66836 -0.71177,-0.49855 -0.95433,-1.09863 -0.95433,-2.3615 v -1.69314 h -2.76068 c -3.04236,0 -4.10915,-0.61445 -4.10915,-2.36736 0,-1.89723 1.39408,-2.35562 7.17004,-2.35562 h 5.26138 l 0.7036,-1.07342 0.70357,-1.07341 -0.70357,-1.07341 -0.7036,-1.07341 h -3.33428 c -5.8405,0 -9.09714,-2.53616 -9.09714,-7.08364 0,-1.7803 0.25098,-2.58006 1.23779,-3.94226 1.16805,-1.61246 2.6004,-2.49194 4.55863,-2.8001 0.67829,-0.10678 0.88607,-0.52242 0.99123,-1.97742 0.1196,-1.65688 0.88953,-2.59479 2.0269,-2.61391 z m 21.64762,41.54677 -2.02774,1.47761 c -2.9328,2.13745 -5.96849,3.56733 -10.26949,4.83705 -1.68993,0.4989 -2.92192,0.78531 -4.34731,0.94343 l 1.84661,8.30968 -6.97633,5.23204 -6.10416,-5.81402 1.59249,-7.88789 c -4.96066,-0.6741 -9.28961,-2.38128 -13.59371,-5.30414 l -2.61141,-1.77364 -2.03612,1.38538 c -2.89689,1.97162 -7.79234,6.98251 -9.95669,10.19151 -3.63752,5.39326 -6.46309,13.3666 -6.46309,18.23703 0,2.90316 1.51757,5.4588 3.95987,6.66771 l 1.83653,0.90988 33.70503,-0.01 33.70502,-0.01 1.76693,-0.80255 c 0.97202,-0.44142 2.3245,-1.53487 3.00554,-2.42942 l 1.23861,-1.62605 -0.0286,-3.4651 c -0.036,-4.36173 -2.08792,-10.61819 -5.17584,-15.78245 -2.27365,-3.80242 -7.6912,-9.65609 -11.015,-11.90141 z" /></g></svg>
