<?xml version="1.0" encoding="UTF-8" standalone="no"?>
<!-- Created with Inkscape (http://www.inkscape.org/) -->

<svg
   width="79.375015mm"
   height="79.374992mm"
   viewBox="0 0 79.375036 79.374991"
   version="1.1"
   id="svg23021"
   inkscape:version="1.4.2 (f4327f4, 2025-05-13)"
   sodipodi:docname="credigestor.svg"
   xml:space="preserve"
   xmlns:inkscape="http://www.inkscape.org/namespaces/inkscape"
   xmlns:sodipodi="http://sodipodi.sourceforge.net/DTD/sodipodi-0.dtd"
   xmlns:xlink="http://www.w3.org/1999/xlink"
   xmlns="http://www.w3.org/2000/svg"
   xmlns:svg="http://www.w3.org/2000/svg"><sodipodi:namedview
     id="namedview23023"
     pagecolor="#ffffff"
     bordercolor="#000000"
     borderopacity="0.25"
     inkscape:showpageshadow="2"
     inkscape:pageopacity="0.0"
     inkscape:pagecheckerboard="0"
     inkscape:deskcolor="#d1d1d1"
     inkscape:document-units="mm"
     showgrid="true"
     inkscape:zoom="0.22627417"
     inkscape:cx="-488.34562"
     inkscape:cy="-125.9534"
     inkscape:window-width="1920"
     inkscape:window-height="1009"
     inkscape:window-x="-8"
     inkscape:window-y="-8"
     inkscape:window-maximized="1"
     inkscape:current-layer="layer1"
     showguides="false"><inkscape:grid
       type="xygrid"
       id="grid776"
       originx="167.02409"
       originy="1242.9493"
       spacingx="26.458333"
       spacingy="26.458333"
       enabled="false"
       units="mm" /></sodipodi:namedview><defs
     id="defs23018"><clipPath
       clipPathUnits="userSpaceOnUse"
       id="clipPath8275"><g
         id="g8279"><use
           x="0"
           y="0"
           xlink:href="#g8250"
           id="use8277"
           transform="translate(-20.462823,-72.789185)" /></g></clipPath><clipPath
       clipPathUnits="userSpaceOnUse"
       id="clipPath10079"><rect
         style="fill:#c8b7b7;fill-opacity:0.746479;stroke:#3cc95e;stroke-width:0;stroke-linecap:round;stroke-opacity:0.996078"
         id="rect10081"
         width="52.911015"
         height="49.403103"
         x="1316.4143"
         y="1652.5684"
         rx="0.52671969"
         ry="0.87574786" /></clipPath><clipPath
       clipPathUnits="userSpaceOnUse"
       id="clipPath12190"><rect
         style="fill:#008000;fill-opacity:0.427817;stroke:#3cc95e;stroke-width:0;stroke-linecap:round;stroke-opacity:0.996078"
         id="rect12192"
         width="175.39565"
         height="48.526123"
         x="527.85919"
         y="-168.87019"
         rx="12.064343"
         ry="14.310345" /></clipPath><clipPath
       clipPathUnits="userSpaceOnUse"
       id="clipPath12616"><rect
         style="fill:#00d455;fill-opacity:1;stroke:#3cc95e;stroke-width:0;stroke-linecap:round;stroke-opacity:0.996078"
         id="rect12618"
         width="150.84024"
         height="182.41145"
         x="862.86499"
         y="-137.88365"
         rx="7.0506887"
         ry="5.5944839" /></clipPath><clipPath
       clipPathUnits="userSpaceOnUse"
       id="clipPath4385"><circle
         style="fill:#e6e6e6;fill-opacity:1;stroke:#000000;stroke-width:0;stroke-linecap:round;stroke-dasharray:none"
         id="circle4387"
         cx="330.98279"
         cy="6.9423862"
         r="143.75597" /></clipPath><clipPath
       clipPathUnits="userSpaceOnUse"
       id="clipPath4487"><circle
         style="fill:#e6e6e6;fill-opacity:1;stroke:#000000;stroke-width:0;stroke-linecap:round;stroke-dasharray:none"
         id="circle4489"
         cx="565.32465"
         cy="-42.289108"
         r="118.15557" /></clipPath><clipPath
       clipPathUnits="userSpaceOnUse"
       id="clipPath445"><circle
         style="fill:#00d455;fill-opacity:0.698039;stroke:#000000;stroke-width:0;stroke-linecap:round"
         id="circle447"
         cx="1164.5865"
         cy="489.20108"
         r="26.178566" /></clipPath></defs><g
     inkscape:label="Capa 1"
     inkscape:groupmode="layer"
     id="layer1"
     transform="translate(-974.20173,426.99159)"><g
       inkscape:label="Clip"
       id="g8250"
       clip-path="url(#clipPath8275)"
       transform="translate(20.462823,72.789185)"
       style="fill:#55d400;fill-opacity:1"><path
         d="m 1059.4449,845.69956 c -8.3614,-1.5136 -15.2795,-7.5298 -18.0131,-15.6648 -0.9662,-2.8751 -1.4436,-6.92594 -1.1143,-9.4551 l 0.2412,-1.85209 h 6.0854 6.0854 l 0.071,6.15156 0.071,6.15153 h 2.5087 2.5087 v -6.21767 -6.21771 h 1.811 1.811 l -0.5164,1.52136 c -1.2318,3.62936 0.519,7.65192 4.1357,9.50212 2.3469,1.2006 4.1471,1.4024 12.5541,1.4073 h 7.7569 l -0.175,0.5953 c -0.096,0.3275 -0.6698,1.4746 -1.2746,2.5493 -4.8746,8.6614 -14.7498,13.2977 -24.5467,11.5243 z m 9.6704,-19.1507 c -2.2597,-0.5407 -3.7561,-2.4923 -3.3969,-4.43056 0.2395,-1.2925 1.7503,-2.83749 3.1566,-3.22791 0.5788,-0.16068 3.0796,-0.29282 5.5572,-0.29363 l 4.5047,-0.002 1.4484,-1.91726 c 0.7966,-1.05449 1.488,-2.00699 1.5366,-2.11666 0.048,-0.10957 -8.9705,-0.1993 -20.0422,-0.1993 -11.0717,0 -20.1304,-0.0629 -20.1304,-0.13984 0,-0.0769 0.3735,-0.88058 0.8299,-1.78594 3.4306,-6.80389 9.259,-11.28218 16.6242,-12.77323 3.2685,-0.66168 8.0708,-0.42433 11.1209,0.54964 4.3835,1.39978 7.6103,3.43926 10.6363,6.72253 2.7476,2.9812 4.824,7.01791 5.6177,10.92141 0.4075,2.00395 0.5612,7.1767 0.248,8.34555 l -0.1596,0.5953 -8.3696,-0.027 c -4.6033,-0.015 -8.7351,-0.1145 -9.1818,-0.2214 z"
         style="fill:#55d400;fill-opacity:1;stroke-width:0.264583"
         id="path11953" /><path
         style="fill:#008000;fill-opacity:0.992958;stroke-width:0.838272"
         d="m 1191.9735,888.20214 c 11.703,-5.72206 17.9154,-18.92944 14.3041,-30.41029 -3.0254,-9.61907 -10.5773,-16.28039 -20.7789,-18.32887 -4.0712,-0.8175 -4.82,-1.24755 -4.82,-2.76818 0,-0.99018 0.7544,-2.4463 1.6766,-3.23583 3.2182,-2.75555 1.3416,-8.15809 -2.8336,-8.15809 -4.6286,0 -6.8335,5.78981 -3.1391,8.24273 0.9796,0.65052 1.7812,2.04665 1.7812,3.10252 0,1.58838 -0.5822,2.01813 -3.3735,2.48972 -5.3502,0.90392 -13.036,5.20283 -16.6577,9.31728 -8.0309,9.12356 -8.0309,23.36952 0,32.49301 6.2044,7.04863 12.9769,9.79511 23.3844,9.48311 4.6787,-0.14026 7.3537,-0.71 10.4565,-2.22711 z m -20.0967,-11.65825 c -5.5939,-3.47425 -8.5793,-9.14668 -7.0251,-13.34813 0.8945,-2.41821 2.8528,-2.34413 9.4293,0.3567 l 5.3713,2.20586 6.1715,-2.14673 c 5.1743,-1.79983 6.3582,-1.96484 7.3264,-1.02115 2.6989,2.6308 -1.332,11.1751 -6.5905,13.96947 -3.9156,2.08072 -11.3199,2.07265 -14.6829,-0.016 z"
         id="path15946"
         sodipodi:nodetypes="ccsscscscscscccscscscc" /></g><g
       id="g33003"
       transform="translate(224.22692,-106.58143)" /><path
       style="fill:#d3bc5f;stroke-width:0.522385"
       d="m 1007.276,-347.86605 c -13.85863,-1.48604 -25.33696,-7.14247 -30.40759,-14.9846 -1.88261,-2.91158 -2.65998,-5.48941 -2.65998,-8.82046 v -1.96675 l 1.465,1.58365 c 6.63738,7.17485 16.6695,11.75994 29.67887,13.56445 3.4853,0.48346 13.5862,0.48363 17.0762,3.1e-4 12.9384,-1.79184 23.1516,-6.43747 29.5934,-13.46101 l 1.5488,-1.68861 v 1.85705 c 0,2.31311 -0.328,4.06526 -1.08,5.83321 -2.6633,6.26129 -9.4999,11.77791 -18.5902,15.00083 -4.9522,1.75575 -8.4119,2.5299 -13.8131,3.0908 -3.125,0.32453 -9.7418,0.31996 -12.8084,-0.009 z m 0.1674,-16.07874 c -12.23073,-1.32428 -22.10271,-5.5024 -28.14693,-11.91268 -3.34485,-3.54738 -5.08804,-7.52114 -5.08804,-11.59853 v -1.67518 l 1.34596,1.50275 c 6.75192,7.53852 18.43345,12.58104 32.14021,13.87388 4.5111,0.42549 11.647,0.21721 16.4082,-0.47892 11.6512,-1.70348 21.899,-6.56979 28.0028,-13.29742 l 1.4651,-1.61475 v 1.57211 c 0,2.0197 -0.3299,3.71085 -1.0528,5.45758 -3.5879,8.67007 -14.9877,15.58219 -29.333,17.78563 -4.6167,0.70912 -11.2492,0.8716 -15.7385,0.38553 z m -0.084,-15.51194 c -11.95308,-1.33966 -21.98648,-5.64842 -27.97899,-12.01541 -1.84919,-1.96476 -2.78026,-3.28821 -3.76027,-5.34513 -1.76515,-3.70466 -1.88676,-7.88232 -0.34271,-11.77491 1.86946,-4.71294 6.94988,-9.57016 13.3553,-12.76854 14.52677,-7.25353 34.08717,-7.52182 49.11537,-0.67369 7.158,3.26177 12.7278,8.33669 14.7529,13.44223 1.5441,3.89259 1.4225,8.07025 -0.3427,11.77491 -0.9935,2.08521 -1.933,3.41164 -3.8553,5.44284 -5.2365,5.53314 -13.9529,9.67179 -23.9494,11.37146 -4.8492,0.82451 -12.3578,1.06585 -16.9942,0.54624 z m 9.8784,-7.27046 v -1.56699 l 1.2977,-0.13279 c 3.3484,-0.34264 6.9559,-1.37708 8.9586,-2.56887 1.3596,-0.80908 2.5657,-2.0618 3.0912,-3.21063 0.5075,-1.10944 0.7012,-3.28385 0.4025,-4.51763 -0.8202,-3.38752 -4.5026,-5.46386 -11.6152,-6.54923 l -2.1348,-0.32576 v -3.2677 -3.26771 l 1.8836,0.10998 c 2.1814,0.1273 5.1635,0.54678 7.6266,1.07281 0.9486,0.20256 1.8339,0.36831 1.9674,0.36831 0.3513,0 0.3613,-5.70417 0.01,-5.85458 -0.9715,-0.41618 -8.4947,-1.43591 -10.5938,-1.43591 h -0.894 v -1.49549 -1.49549 h -3.2649 -3.2649 v 1.47369 c 0,1.62555 -0.053,1.69573 -1.281,1.70167 -0.8752,0.004 -4.336,0.71718 -5.8868,1.2127 -3.0887,0.98694 -5.50199,2.82713 -6.41072,4.88819 -0.34334,0.77883 -0.40183,1.18425 -0.40104,2.7811 0,2.11071 0.1498,2.56557 1.29207,3.94913 1.74413,2.1126 4.91559,3.37337 10.35649,4.11712 l 2.331,0.31863 v 3.23826 3.23824 h -0.8695 c -2.6169,0 -8.3893,-0.74248 -10.88989,-1.40073 -1.77191,-0.46644 -1.63507,-0.677 -1.63507,2.51577 0,3.22207 -0.13798,2.96498 1.84173,3.43209 2.21683,0.52305 4.68843,0.85197 8.16223,1.08619 l 3.3905,0.22862 v 1.46201 1.46203 h 3.2649 3.2649 z m 0,-10.21352 v -2.80759 l 0.3768,0.0928 c 0.2072,0.051 0.8502,0.18304 1.4289,0.29336 2.0043,0.38209 2.9848,1.08478 3.1558,2.2617 0.187,1.28676 -0.9849,2.21718 -3.3801,2.68353 -0.8018,0.15611 -1.4856,0.28384 -1.5196,0.28384 -0.034,0 -0.062,-1.26342 -0.062,-2.8076 z m -7.9529,-9.62613 c -2.5628,-0.53016 -3.7672,-1.36611 -3.7672,-2.61459 0,-1.35036 1.2159,-2.22559 3.6045,-2.59469 l 1.5858,-0.24506 v 2.86862 c 0,1.57775 -0.057,2.85953 -0.1255,2.8484 -0.069,-0.0112 -0.653,-0.12933 -1.2976,-0.26268 z"
       id="path9"
       sodipodi:nodetypes="ccscsscccccccccccscssccccsscccscscscccscccsscsscccssscscccccscscccscccsssssccccccsccsscsscsscscc" /></g></svg>
