<?xml version="1.0" encoding="UTF-8" standalone="no"?>
<!-- Created with Inkscape (http://www.inkscape.org/) -->

<svg
   width="7.0509501mm"
   height="7.9375019mm"
   viewBox="0 0 7.05095 7.9375019"
   version="1.1"
   id="svg23021"
   inkscape:version="1.4.2 (f4327f4, 2025-05-13)"
   sodipodi:docname="favicon.svg"
   xml:space="preserve"
   xmlns:inkscape="http://www.inkscape.org/namespaces/inkscape"
   xmlns:sodipodi="http://sodipodi.sourceforge.net/DTD/sodipodi-0.dtd"
   xmlns="http://www.w3.org/2000/svg"
   xmlns:svg="http://www.w3.org/2000/svg"><sodipodi:namedview
     id="namedview23023"
     pagecolor="#ffffff"
     bordercolor="#000000"
     borderopacity="0.25"
     inkscape:showpageshadow="2"
     inkscape:pageopacity="0.0"
     inkscape:pagecheckerboard="0"
     inkscape:deskcolor="#d1d1d1"
     inkscape:document-units="mm"
     showgrid="false"
     inkscape:zoom="1.0771772"
     inkscape:cx="-337.45609"
     inkscape:cy="151.78561"
     inkscape:window-width="1920"
     inkscape:window-height="1009"
     inkscape:window-x="-8"
     inkscape:window-y="-8"
     inkscape:window-maximized="1"
     inkscape:current-layer="layer1" /><defs
     id="defs23018" /><g
     inkscape:label="Capa 1"
     inkscape:groupmode="layer"
     id="layer1"
     transform="translate(-107.80102,-66.438368)"><path
       id="path10"
       style="fill:#d3bc5f;fill-opacity:1;stroke-width:0.14444"
       d="m 111.39105,66.439744 c -0.77681,-0.02668 -1.54824,0.335252 -2.01719,1.036399 -0.29483,0.440807 -0.36916,0.703003 -0.36858,1.30093 4.4e-4,0.416272 0.0142,0.535071 0.0853,0.732533 0.30114,0.836258 0.99178,1.424075 1.85365,1.577776 0.48865,0.08714 1.18951,-0.05792 1.61809,-0.334918 0.44286,-0.286235 0.80137,-0.748851 0.97877,-1.262787 0.11769,-0.340951 0.12583,-1.0599 0.0156,-1.381393 -0.17664,-0.515205 -0.44595,-0.903344 -0.82576,-1.190161 -0.40581,-0.306462 -0.87381,-0.462374 -1.33989,-0.478379 z m -0.0921,0.90824 c 0.0337,-5.34e-4 0.0711,0.0079 0.11122,0.0262 0.0743,0.03386 0.0956,0.07581 0.10509,0.206758 l 0.0119,0.164286 0.24691,0.01164 c 0.13582,0.0064 0.2691,0.02992 0.29618,0.0524 0.0629,0.05223 0.0639,0.239295 0.001,0.291102 -0.0263,0.02182 -0.27486,0.04544 -0.55235,0.05247 -0.2775,0.007 -0.52061,0.02996 -0.54026,0.05098 -0.083,0.08878 -0.0863,0.206423 -0.008,0.284684 0.0661,0.06615 0.12673,0.07837 0.38843,0.07837 0.24319,0 0.34006,0.01708 0.44905,0.07905 0.22874,0.130073 0.29184,0.246789 0.29184,0.539884 v 0.255796 l -0.13375,0.138386 c -0.0804,0.08319 -0.19855,0.155818 -0.29618,0.182051 l -0.16242,0.04367 v 0.142715 c 0,0.104215 -0.0229,0.158852 -0.0849,0.202278 -0.0467,0.03272 -0.0945,0.05949 -0.10614,0.05949 -0.0117,0 -0.0594,-0.02677 -0.10614,-0.05949 -0.0634,-0.04438 -0.085,-0.09779 -0.085,-0.210191 v -0.150702 h -0.24572 c -0.27079,0 -0.36574,-0.05469 -0.36574,-0.210713 0,-0.168867 0.12408,-0.209668 0.63818,-0.209668 h 0.46831 l 0.0626,-0.09554 0.0626,-0.09554 -0.0626,-0.09554 -0.0626,-0.09554 h -0.29678 c -0.51985,0 -0.80971,-0.225737 -0.80971,-0.630497 0,-0.15846 0.0223,-0.229644 0.11017,-0.35089 0.10397,-0.143521 0.23146,-0.221802 0.40575,-0.24923 0.0604,-0.0095 0.0789,-0.0465 0.0882,-0.176005 0.0106,-0.147475 0.0792,-0.230956 0.18041,-0.232658 z m 1.9268,3.697972 -0.18048,0.131518 c -0.26104,0.190249 -0.53124,0.317519 -0.91406,0.430533 -0.15042,0.04441 -0.26008,0.0699 -0.38695,0.08397 l 0.16437,0.739623 -0.62095,0.46569 -0.54331,-0.517491 0.14174,-0.702081 c -0.44154,-0.06 -0.82685,-0.211951 -1.20994,-0.472107 l -0.23244,-0.157868 -0.18123,0.12331 c -0.25784,0.175488 -0.69357,0.621495 -0.88622,0.90712 -0.32376,0.48004 -0.57526,1.189727 -0.57526,1.623231 0,0.258403 0.13508,0.485874 0.35246,0.593476 l 0.16346,0.08099 3,-8.9e-4 3,-8.9e-4 0.15727,-0.07143 c 0.0865,-0.03929 0.2069,-0.136615 0.26751,-0.216237 l 0.11025,-0.14473 -0.003,-0.30842 c -0.003,-0.388226 -0.18584,-0.945098 -0.46068,-1.404755 -0.20238,-0.338444 -0.68458,-0.859464 -0.98042,-1.059314 z"
       inkscape:export-filename="C:\Users\User\Desktop\path10.png"
       inkscape:export-xdpi="96"
       inkscape:export-ydpi="96" /></g></svg>
