<?xml version="1.0" encoding="UTF-8" standalone="no"?>
<!-- Created with Inkscape (http://www.inkscape.org/) -->

<svg
   width="7.9375005mm"
   height="7.9375019mm"
   viewBox="0 0 7.9375004 7.9375019"
   version="1.1"
   id="svg23021"
   inkscape:version="1.2.2 (732a01da63, 2022-12-09)"
   sodipodi:docname="credigestor.svg"
   xmlns:inkscape="http://www.inkscape.org/namespaces/inkscape"
   xmlns:sodipodi="http://sodipodi.sourceforge.net/DTD/sodipodi-0.dtd"
   xmlns="http://www.w3.org/2000/svg"
   xmlns:svg="http://www.w3.org/2000/svg">
  <sodipodi:namedview
     id="namedview23023"
     pagecolor="#ffffff"
     bordercolor="#000000"
     borderopacity="0.25"
     inkscape:showpageshadow="2"
     inkscape:pageopacity="0.0"
     inkscape:pagecheckerboard="0"
     inkscape:deskcolor="#d1d1d1"
     inkscape:document-units="mm"
     showgrid="false"
     inkscape:zoom="2.1543544"
     inkscape:cx="207.25467"
     inkscape:cy="59.878728"
     inkscape:window-width="1920"
     inkscape:window-height="1009"
     inkscape:window-x="-8"
     inkscape:window-y="-8"
     inkscape:window-maximized="1"
     inkscape:current-layer="layer1" />
  <defs
     id="defs23018" />
  <g
     inkscape:label="Capa 1"
     inkscape:groupmode="layer"
     id="layer1"
     transform="translate(-62.971489,-103.56256)">
    <circle
       style="fill:none;stroke:#ffff00;stroke-width:0;stroke-linecap:round"
       id="path23155"
       cx="66.940239"
       cy="107.53131"
       r="3.9687498" />
    <path
       id="path21165"
       style="fill:#ffffff;fill-opacity:1;stroke:#ffff00;stroke-width:0;stroke-linecap:round"
       d="m 66.940282,103.56256 a 3.9685765,3.9685765 0 0 0 -3.968637,3.96856 3.9685765,3.9685765 0 0 0 2.119481,3.51127 h 3.698302 a 3.9685765,3.9685765 0 0 0 2.119407,-3.51127 3.9685765,3.9685765 0 0 0 -3.968553,-3.96856 z m -7.5e-5,2.19592 a 1.7505388,1.7505388 0 0 1 1.750535,1.75052 1.7505388,1.7505388 0 0 1 -0.515924,1.23923 c 0.141379,0.14934 0.350771,0.37067 0.817571,0.86453 h -4.10429 c 0.460867,-0.50239 0.668685,-0.72916 0.804513,-0.87747 a 1.7505388,1.7505388 0 0 1 -0.502929,-1.22629 1.7505388,1.7505388 0 0 1 1.750524,-1.75052 z"
       inkscape:export-filename="..\DESCARGAS\Personal_Portfolio_27-09-23-main\Personal_Portfolio_27-09-23-main\assets\4294.png"
       inkscape:export-xdpi="96"
       inkscape:export-ydpi="96" />
  </g>
</svg>
