<?xml version="1.0" encoding="UTF-8" standalone="no"?>
<!-- Created with Inkscape (http://www.inkscape.org/) -->

<svg
   width="34.729435mm"
   height="29.109156mm"
   viewBox="0 0 34.729444 29.109155"
   version="1.1"
   id="svg23021"
   inkscape:version="1.2.2 (732a01da63, 2022-12-09)"
   sodipodi:docname="credigestor.svg"
   xml:space="preserve"
   xmlns:inkscape="http://www.inkscape.org/namespaces/inkscape"
   xmlns:sodipodi="http://sodipodi.sourceforge.net/DTD/sodipodi-0.dtd"
   xmlns:xlink="http://www.w3.org/1999/xlink"
   xmlns="http://www.w3.org/2000/svg"
   xmlns:svg="http://www.w3.org/2000/svg"><sodipodi:namedview
     id="namedview23023"
     pagecolor="#ffffff"
     bordercolor="#000000"
     borderopacity="0.25"
     inkscape:showpageshadow="2"
     inkscape:pageopacity="0.0"
     inkscape:pagecheckerboard="0"
     inkscape:deskcolor="#d1d1d1"
     inkscape:document-units="mm"
     showgrid="true"
     inkscape:zoom="0.64"
     inkscape:cx="-561.71875"
     inkscape:cy="9.375"
     inkscape:window-width="1920"
     inkscape:window-height="1009"
     inkscape:window-x="-8"
     inkscape:window-y="-8"
     inkscape:window-maximized="1"
     inkscape:current-layer="layer1"
     showguides="false"><inkscape:grid
       type="xygrid"
       id="grid776"
       originx="-609.01259"
       originy="1134.7998"
       spacingx="26.458333"
       spacingy="26.458333"
       enabled="false" /></sodipodi:namedview><defs
     id="defs23018"><clipPath
       clipPathUnits="userSpaceOnUse"
       id="clipPath8275"><g
         id="g8279"><use
           x="0"
           y="0"
           xlink:href="#g8250"
           id="use8277"
           transform="translate(-20.462823,-72.789185)" /></g></clipPath><clipPath
       clipPathUnits="userSpaceOnUse"
       id="clipPath10079"><rect
         style="fill:#c8b7b7;fill-opacity:0.746479;stroke:#3cc95e;stroke-width:0;stroke-linecap:round;stroke-opacity:0.996078"
         id="rect10081"
         width="52.911015"
         height="49.403103"
         x="1316.4143"
         y="1652.5684"
         rx="0.52671969"
         ry="0.87574786" /></clipPath><clipPath
       clipPathUnits="userSpaceOnUse"
       id="clipPath12190"><rect
         style="fill:#008000;fill-opacity:0.427817;stroke:#3cc95e;stroke-width:0;stroke-linecap:round;stroke-opacity:0.996078"
         id="rect12192"
         width="175.39565"
         height="48.526123"
         x="527.85919"
         y="-168.87019"
         rx="12.064343"
         ry="14.310345" /></clipPath><clipPath
       clipPathUnits="userSpaceOnUse"
       id="clipPath12616"><rect
         style="fill:#00d455;fill-opacity:1;stroke:#3cc95e;stroke-width:0;stroke-linecap:round;stroke-opacity:0.996078"
         id="rect12618"
         width="150.84024"
         height="182.41145"
         x="862.86499"
         y="-137.88365"
         rx="7.0506887"
         ry="5.5944839" /></clipPath><clipPath
       clipPathUnits="userSpaceOnUse"
       id="clipPath4385"><circle
         style="fill:#e6e6e6;fill-opacity:1;stroke:#000000;stroke-width:0;stroke-linecap:round;stroke-dasharray:none"
         id="circle4387"
         cx="330.98279"
         cy="6.9423862"
         r="143.75597" /></clipPath><clipPath
       clipPathUnits="userSpaceOnUse"
       id="clipPath4487"><circle
         style="fill:#e6e6e6;fill-opacity:1;stroke:#000000;stroke-width:0;stroke-linecap:round;stroke-dasharray:none"
         id="circle4489"
         cx="565.32465"
         cy="-42.289108"
         r="118.15557" /></clipPath><clipPath
       clipPathUnits="userSpaceOnUse"
       id="clipPath445"><circle
         style="fill:#00d455;fill-opacity:0.698039;stroke:#000000;stroke-width:0;stroke-linecap:round"
         id="circle447"
         cx="1164.5865"
         cy="489.20108"
         r="26.178566" /></clipPath></defs><g
     inkscape:label="Capa 1"
     inkscape:groupmode="layer"
     id="layer1"
     transform="translate(-1750.2382,318.84204)"><g
       inkscape:label="Clip"
       id="g8250"
       clip-path="url(#clipPath8275)"
       transform="translate(20.462823,72.789185)"
       style="fill:#55d400;fill-opacity:1"><path
         d="m 1059.4449,845.69956 c -8.3614,-1.5136 -15.2795,-7.5298 -18.0131,-15.6648 -0.9662,-2.8751 -1.4436,-6.92594 -1.1143,-9.4551 l 0.2412,-1.85209 h 6.0854 6.0854 l 0.071,6.15156 0.071,6.15153 h 2.5087 2.5087 v -6.21767 -6.21771 h 1.811 1.811 l -0.5164,1.52136 c -1.2318,3.62936 0.519,7.65192 4.1357,9.50212 2.3469,1.2006 4.1471,1.4024 12.5541,1.4073 h 7.7569 l -0.175,0.5953 c -0.096,0.3275 -0.6698,1.4746 -1.2746,2.5493 -4.8746,8.6614 -14.7498,13.2977 -24.5467,11.5243 z m 9.6704,-19.1507 c -2.2597,-0.5407 -3.7561,-2.4923 -3.3969,-4.43056 0.2395,-1.2925 1.7503,-2.83749 3.1566,-3.22791 0.5788,-0.16068 3.0796,-0.29282 5.5572,-0.29363 l 4.5047,-0.002 1.4484,-1.91726 c 0.7966,-1.05449 1.488,-2.00699 1.5366,-2.11666 0.048,-0.10957 -8.9705,-0.1993 -20.0422,-0.1993 -11.0717,0 -20.1304,-0.0629 -20.1304,-0.13984 0,-0.0769 0.3735,-0.88058 0.8299,-1.78594 3.4306,-6.80389 9.259,-11.28218 16.6242,-12.77323 3.2685,-0.66168 8.0708,-0.42433 11.1209,0.54964 4.3835,1.39978 7.6103,3.43926 10.6363,6.72253 2.7476,2.9812 4.824,7.01791 5.6177,10.92141 0.4075,2.00395 0.5612,7.1767 0.248,8.34555 l -0.1596,0.5953 -8.3696,-0.027 c -4.6033,-0.015 -8.7351,-0.1145 -9.1818,-0.2214 z"
         style="fill:#55d400;fill-opacity:1;stroke-width:0.264583"
         id="path11953" /><path
         style="fill:#008000;fill-opacity:0.992958;stroke-width:0.838272"
         d="m 1191.9735,888.20214 c 11.703,-5.72206 17.9154,-18.92944 14.3041,-30.41029 -3.0254,-9.61907 -10.5773,-16.28039 -20.7789,-18.32887 -4.0712,-0.8175 -4.82,-1.24755 -4.82,-2.76818 0,-0.99018 0.7544,-2.4463 1.6766,-3.23583 3.2182,-2.75555 1.3416,-8.15809 -2.8336,-8.15809 -4.6286,0 -6.8335,5.78981 -3.1391,8.24273 0.9796,0.65052 1.7812,2.04665 1.7812,3.10252 0,1.58838 -0.5822,2.01813 -3.3735,2.48972 -5.3502,0.90392 -13.036,5.20283 -16.6577,9.31728 -8.0309,9.12356 -8.0309,23.36952 0,32.49301 6.2044,7.04863 12.9769,9.79511 23.3844,9.48311 4.6787,-0.14026 7.3537,-0.71 10.4565,-2.22711 z m -20.0967,-11.65825 c -5.5939,-3.47425 -8.5793,-9.14668 -7.0251,-13.34813 0.8945,-2.41821 2.8528,-2.34413 9.4293,0.3567 l 5.3713,2.20586 6.1715,-2.14673 c 5.1743,-1.79983 6.3582,-1.96484 7.3264,-1.02115 2.6989,2.6308 -1.332,11.1751 -6.5905,13.96947 -3.9156,2.08072 -11.3199,2.07265 -14.6829,-0.016 z"
         id="path15946"
         sodipodi:nodetypes="ccsscscscscscccscscscc" /></g><g
       id="g33003"
       transform="translate(224.22692,-106.58143)" /><g
       id="g19342"
       style="fill:#ffffff;fill-opacity:1"
       transform="matrix(0.70001737,0,0,0.70001737,998.06561,-229.78527)"><path
         id="path19336"
         style="fill:#ffffff;fill-opacity:1;stroke:#000000;stroke-width:0;stroke-linecap:round"
         d="m 1099.175,-127.2208 a 17.97805,17.97805 0 0 0 -17.9297,16.74988 c -1.5087,0.3826 -2.9703,1.04685 -4.2447,2.22571 -2.0155,1.86428 -2.1544,4.08482 -2.3415,5.88491 -0.094,0.90004 -0.12,1.71755 -0.1291,2.33577 0,0.309125 -0.01,0.570065 -0.01,0.748285 -4e-4,0.17822 -0.04,0.48859 0.014,0.0351 a 2.8,2.8 0 0 0 2.4469,3.11299 2.8,2.8 0 0 0 3.1135,-2.44895 c 0.066,-0.55612 0.027,-0.49736 0.027,-0.68781 3e-4,-0.19045 0,-0.41651 0,-0.67748 0.01,-0.521965 0.031,-1.181555 0.1003,-1.839685 0.1325,-1.27512 0.7272,-2.45335 0.5896,-2.3642 0.09,-0.0764 0.2544,-0.16451 0.4822,-0.25838 a 17.97805,20.791689 0 0 0 17.8816,18.767335 17.97805,20.791689 0 0 0 17.5808,-16.452235 c 1.7304,-0.3509 3.4242,-1.02567 4.8757,-2.36833 2.0155,-1.8643 2.1548,-4.08689 2.3419,-5.88698 0.094,-0.90004 0.1196,-1.71754 0.1287,-2.33577 v -0.74828 c 4e-4,-0.17822 0.042,-0.48859 -0.012,-0.0351 a 2.8,2.8 0 0 0 -2.4489,-3.11143 h -5e-4 a 2.8,2.8 0 0 0 -3.1109,2.44739 c -0.066,0.55612 -0.027,0.49736 -0.027,0.68781 -4e-4,0.19044 -10e-5,0.41651 0,0.67748 -0.01,0.52195 -0.031,1.18155 -0.1,1.83968 -0.1325,1.27512 -0.7277,2.45531 -0.5901,2.36627 -0.1155,0.0985 -0.3599,0.21668 -0.6981,0.34106 a 17.97805,17.97805 0 0 0 0.038,-1.02681 17.97805,17.97805 0 0 0 -17.9782,-17.97823 z m -6.5605,12.88552 h 13.3941 c 2.7699,0 5.0002,2.2297 5.0002,4.99969 v 0.48525 c 0,2.76999 -2.2303,5.00021 -5.0002,5.00021 h -13.3941 c -2.77,0 -5.0002,-2.23022 -5.0002,-5.00021 v -0.48525 c 0,-2.76999 2.2302,-4.99969 5.0002,-4.99969 z"
         inkscape:export-filename="..\..\..\..\Users\User\Desktop\path11G871.png"
         inkscape:export-xdpi="96"
         inkscape:export-ydpi="96" /><path
         id="path19338"
         style="fill:#ffffff;fill-opacity:1;stroke:#000000;stroke-width:0;stroke-linecap:round"
         d="m 1094.2705,-111.38164 a 2.0878619,2.0878619 0 0 0 -2.0876,2.08791 2.0878619,2.0878619 0 0 0 2.0876,2.08762 2.0878619,2.0878619 0 0 0 2.088,-2.08762 2.0878619,2.0878619 0 0 0 -2.088,-2.08791 z m 10.0822,0 a 2.0878619,2.0878619 0 0 0 -2.0879,2.08791 2.0878619,2.0878619 0 0 0 2.0879,2.08762 2.0878619,2.0878619 0 0 0 2.0879,-2.08762 2.0878619,2.0878619 0 0 0 -2.0879,-2.08791 z" /></g></g></svg>
