<?xml version="1.0" encoding="UTF-8" standalone="no"?>
<!-- Created with Inkscape (http://www.inkscape.org/) -->

<svg
   width="34.395802mm"
   height="33.15593mm"
   viewBox="0 0 34.39581 33.155929"
   version="1.1"
   id="svg23021"
   inkscape:version="1.2.2 (732a01da63, 2022-12-09)"
   sodipodi:docname="credigestor.svg"
   xml:space="preserve"
   xmlns:inkscape="http://www.inkscape.org/namespaces/inkscape"
   xmlns:sodipodi="http://sodipodi.sourceforge.net/DTD/sodipodi-0.dtd"
   xmlns:xlink="http://www.w3.org/1999/xlink"
   xmlns="http://www.w3.org/2000/svg"
   xmlns:svg="http://www.w3.org/2000/svg"><sodipodi:namedview
     id="namedview23023"
     pagecolor="#ffffff"
     bordercolor="#000000"
     borderopacity="0.25"
     inkscape:showpageshadow="2"
     inkscape:pageopacity="0.0"
     inkscape:pagecheckerboard="0"
     inkscape:deskcolor="#d1d1d1"
     inkscape:document-units="mm"
     showgrid="true"
     inkscape:zoom="1.28"
     inkscape:cx="18.359375"
     inkscape:cy="143.75"
     inkscape:window-width="1920"
     inkscape:window-height="1009"
     inkscape:window-x="-8"
     inkscape:window-y="-8"
     inkscape:window-maximized="1"
     inkscape:current-layer="layer1"
     showguides="false"><inkscape:grid
       type="xygrid"
       id="grid776"
       originx="-469.00582"
       originy="1236.2292"
       spacingx="26.458333"
       spacingy="26.458333"
       enabled="false" /></sodipodi:namedview><defs
     id="defs23018"><clipPath
       clipPathUnits="userSpaceOnUse"
       id="clipPath8275"><g
         id="g8279"><use
           x="0"
           y="0"
           xlink:href="#g8250"
           id="use8277"
           transform="translate(-20.462823,-72.789185)" /></g></clipPath><clipPath
       clipPathUnits="userSpaceOnUse"
       id="clipPath10079"><rect
         style="fill:#c8b7b7;fill-opacity:0.746479;stroke:#3cc95e;stroke-width:0;stroke-linecap:round;stroke-opacity:0.996078"
         id="rect10081"
         width="52.911015"
         height="49.403103"
         x="1316.4143"
         y="1652.5684"
         rx="0.52671969"
         ry="0.87574786" /></clipPath><clipPath
       clipPathUnits="userSpaceOnUse"
       id="clipPath12190"><rect
         style="fill:#008000;fill-opacity:0.427817;stroke:#3cc95e;stroke-width:0;stroke-linecap:round;stroke-opacity:0.996078"
         id="rect12192"
         width="175.39565"
         height="48.526123"
         x="527.85919"
         y="-168.87019"
         rx="12.064343"
         ry="14.310345" /></clipPath><clipPath
       clipPathUnits="userSpaceOnUse"
       id="clipPath12616"><rect
         style="fill:#00d455;fill-opacity:1;stroke:#3cc95e;stroke-width:0;stroke-linecap:round;stroke-opacity:0.996078"
         id="rect12618"
         width="150.84024"
         height="182.41145"
         x="862.86499"
         y="-137.88365"
         rx="7.0506887"
         ry="5.5944839" /></clipPath><clipPath
       clipPathUnits="userSpaceOnUse"
       id="clipPath4385"><circle
         style="fill:#e6e6e6;fill-opacity:1;stroke:#000000;stroke-width:0;stroke-linecap:round;stroke-dasharray:none"
         id="circle4387"
         cx="330.98279"
         cy="6.9423862"
         r="143.75597" /></clipPath><clipPath
       clipPathUnits="userSpaceOnUse"
       id="clipPath4487"><circle
         style="fill:#e6e6e6;fill-opacity:1;stroke:#000000;stroke-width:0;stroke-linecap:round;stroke-dasharray:none"
         id="circle4489"
         cx="565.32465"
         cy="-42.289108"
         r="118.15557" /></clipPath><clipPath
       clipPathUnits="userSpaceOnUse"
       id="clipPath445"><circle
         style="fill:#00d455;fill-opacity:0.698039;stroke:#000000;stroke-width:0;stroke-linecap:round"
         id="circle447"
         cx="1164.5865"
         cy="489.20108"
         r="26.178566" /></clipPath></defs><g
     inkscape:label="Capa 1"
     inkscape:groupmode="layer"
     id="layer1"
     transform="translate(-1610.2318,420.27149)"><g
       inkscape:label="Clip"
       id="g8250"
       clip-path="url(#clipPath8275)"
       transform="translate(20.462823,72.789185)"
       style="fill:#55d400;fill-opacity:1"><path
         d="m 1059.4449,845.69956 c -8.3614,-1.5136 -15.2795,-7.5298 -18.0131,-15.6648 -0.9662,-2.8751 -1.4436,-6.92594 -1.1143,-9.4551 l 0.2412,-1.85209 h 6.0854 6.0854 l 0.071,6.15156 0.071,6.15153 h 2.5087 2.5087 v -6.21767 -6.21771 h 1.811 1.811 l -0.5164,1.52136 c -1.2318,3.62936 0.519,7.65192 4.1357,9.50212 2.3469,1.2006 4.1471,1.4024 12.5541,1.4073 h 7.7569 l -0.175,0.5953 c -0.096,0.3275 -0.6698,1.4746 -1.2746,2.5493 -4.8746,8.6614 -14.7498,13.2977 -24.5467,11.5243 z m 9.6704,-19.1507 c -2.2597,-0.5407 -3.7561,-2.4923 -3.3969,-4.43056 0.2395,-1.2925 1.7503,-2.83749 3.1566,-3.22791 0.5788,-0.16068 3.0796,-0.29282 5.5572,-0.29363 l 4.5047,-0.002 1.4484,-1.91726 c 0.7966,-1.05449 1.488,-2.00699 1.5366,-2.11666 0.048,-0.10957 -8.9705,-0.1993 -20.0422,-0.1993 -11.0717,0 -20.1304,-0.0629 -20.1304,-0.13984 0,-0.0769 0.3735,-0.88058 0.8299,-1.78594 3.4306,-6.80389 9.259,-11.28218 16.6242,-12.77323 3.2685,-0.66168 8.0708,-0.42433 11.1209,0.54964 4.3835,1.39978 7.6103,3.43926 10.6363,6.72253 2.7476,2.9812 4.824,7.01791 5.6177,10.92141 0.4075,2.00395 0.5612,7.1767 0.248,8.34555 l -0.1596,0.5953 -8.3696,-0.027 c -4.6033,-0.015 -8.7351,-0.1145 -9.1818,-0.2214 z"
         style="fill:#55d400;fill-opacity:1;stroke-width:0.264583"
         id="path11953" /><path
         style="fill:#008000;fill-opacity:0.992958;stroke-width:0.838272"
         d="m 1191.9735,888.20214 c 11.703,-5.72206 17.9154,-18.92944 14.3041,-30.41029 -3.0254,-9.61907 -10.5773,-16.28039 -20.7789,-18.32887 -4.0712,-0.8175 -4.82,-1.24755 -4.82,-2.76818 0,-0.99018 0.7544,-2.4463 1.6766,-3.23583 3.2182,-2.75555 1.3416,-8.15809 -2.8336,-8.15809 -4.6286,0 -6.8335,5.78981 -3.1391,8.24273 0.9796,0.65052 1.7812,2.04665 1.7812,3.10252 0,1.58838 -0.5822,2.01813 -3.3735,2.48972 -5.3502,0.90392 -13.036,5.20283 -16.6577,9.31728 -8.0309,9.12356 -8.0309,23.36952 0,32.49301 6.2044,7.04863 12.9769,9.79511 23.3844,9.48311 4.6787,-0.14026 7.3537,-0.71 10.4565,-2.22711 z m -20.0967,-11.65825 c -5.5939,-3.47425 -8.5793,-9.14668 -7.0251,-13.34813 0.8945,-2.41821 2.8528,-2.34413 9.4293,0.3567 l 5.3713,2.20586 6.1715,-2.14673 c 5.1743,-1.79983 6.3582,-1.96484 7.3264,-1.02115 2.6989,2.6308 -1.332,11.1751 -6.5905,13.96947 -3.9156,2.08072 -11.3199,2.07265 -14.6829,-0.016 z"
         id="path15946"
         sodipodi:nodetypes="ccsscscscscscccscscscc" /></g><g
       id="g33003"
       transform="translate(224.22692,-106.58143)" /><path
       id="path31044"
       style="fill:#ffffff;fill-opacity:1;stroke-width:0.132921"
       d="m 1627.6398,-420.26923 c -0.8596,-0.0129 -1.7171,0.0292 -2.3015,0.13052 -2.6129,0.45294 -5.0817,1.74736 -6.919,3.62775 -1.4668,1.50117 -2.384,3.05087 -3.0409,5.13799 -0.3343,1.06087 -0.368,1.33379 -0.3602,3.32556 0,1.97281 0.036,2.27432 0.3634,3.32431 0.6023,1.93152 1.6124,3.68495 2.8595,4.96426 l 0.4531,0.46453 -0.3965,0.47065 c -0.846,1.00458 -1.5451,0.96905 -3.4866,-0.1774 -1.6472,-0.97269 -2.6529,-0.99215 -3.7244,-0.0714 -0.6444,0.55373 -0.8549,1.01479 -0.8549,1.872 0,1.41023 0.6979,2.16847 3.023,3.28436 1.4917,0.71587 2.5614,0.99064 3.8578,0.99064 1.6234,0 2.839,-0.44113 4.1954,-1.52247 0.6719,-0.53522 0.7646,-0.57707 0.6803,-0.30507 -0.2284,0.73674 -0.8588,1.65303 -1.7856,2.5955 -1.145,1.16447 -1.3719,1.58771 -1.3719,2.55555 0,0.92942 0.5274,1.77429 1.3597,2.17746 v -4e-4 c 0.7116,0.34477 1.7027,0.37307 2.361,0.0673 0.5977,-0.27756 1.9875,-1.61463 2.8008,-2.6946 0.7429,-0.98656 1.4127,-2.25045 1.7495,-3.30067 0.1334,-0.41586 0.2831,-0.75614 0.3312,-0.75614 0.049,0 0.1646,0.25177 0.2577,0.55915 0.2497,0.82503 0.9936,2.35594 1.4964,3.08002 0.6345,0.91389 2.5238,2.78618 3.1077,3.07961 1.7106,0.85976 3.7722,-0.40552 3.7722,-2.31531 0,-0.87364 -0.2501,-1.30931 -1.4316,-2.49232 -0.6264,-0.62712 -1.1411,-1.29427 -1.4091,-1.82714 -0.2323,-0.46167 -0.422,-0.87744 -0.422,-0.92417 0,-0.0467 0.4305,0.23605 0.9568,0.62849 1.2673,0.94498 2.1611,1.27559 3.6783,1.36014 1.5137,0.0844 2.5118,-0.14298 4.1652,-0.94904 2.3415,-1.14137 3.023,-1.88355 3.023,-3.29088 0,-0.8572 -0.2105,-1.31828 -0.8549,-1.872 -1.0555,-0.90692 -2.1299,-0.90177 -3.5967,0.0167 -0.5357,0.33549 -1.2898,0.70719 -1.6758,0.8263 -0.8681,0.2678 -1.3417,0.11829 -1.9307,-0.60973 l -0.3956,-0.48819 0.4759,-0.44821 c 1.1491,-1.0815 2.3923,-3.34024 2.9719,-5.40024 0.3395,-1.20622 0.3293,-4.55924 -0.018,-5.8195 -1.2666,-4.60386 -5.0357,-8.148 -9.6496,-9.07368 -0.5935,-0.11904 -1.4553,-0.1873 -2.3149,-0.20025 z m -4.5059,11.86373 a 2.5884889,2.5884889 0 0 1 2.5886,2.58817 2.5884889,2.5884889 0 0 1 -2.5886,2.58856 2.5884889,2.5884889 0 0 1 -2.5885,-2.58856 2.5884889,2.5884889 0 0 1 2.5885,-2.58817 z m 8.5916,0 a 2.5884889,2.5884889 0 0 1 2.5886,2.58817 2.5884889,2.5884889 0 0 1 -2.5886,2.58856 2.5884889,2.5884889 0 0 1 -2.5886,-2.58856 2.5884889,2.5884889 0 0 1 2.5886,-2.58817 z" /></g></svg>
